<?xml version="1.0" standalone="no"?><!DOCTYPE svg PUBLIC "-//W3C//DTD SVG 1.1//EN" "http://www.w3.org/Graphics/SVG/1.1/DTD/svg11.dtd"><svg t="1545793407630" class="icon" style="" viewBox="0 0 1024 1024" version="1.1" xmlns="http://www.w3.org/2000/svg" p-id="3503" xmlns:xlink="http://www.w3.org/1999/xlink" width="64" height="64"><defs><style type="text/css"></style></defs><path d="M512-0.000731C259.921966-0.000731 54.873142 100.494037 54.873142 224.027999L54.873142 799.97127C54.873142 923.468662 278.20704 1024 530.285074 1024 782.363108 1024 969.126858 923.468662 969.126858 799.97127L969.126858 224.027999C969.126858 100.494037 764.078034-0.000731 512-0.000731ZM493.714926 73.139566C730.689489 73.139566 895.98656 181.167785 895.98656 219.45673 895.98656 257.745676 767.259637 329.167176 530.285074 329.167176 293.310511 329.167176 128.01344 257.745676 128.01344 219.45673 128.01344 181.167785 256.740363 73.139566 493.714926 73.139566ZM895.98656 804.542538C895.98656 842.831484 767.259637 950.823132 530.285074 950.823132 293.310511 950.823132 128.01344 842.868054 128.01344 804.579109L128.01344 621.691795C211.79565 673.913967 384.589602 694.868663 530.285074 694.868663 676.017116 694.868663 812.20435 673.913967 895.98656 621.691795L895.98656 804.542538ZM530.285074 621.691795C293.310511 621.691795 128.01344 550.270295 128.01344 512.017919L128.01344 329.167176C211.79565 381.352779 384.589602 402.307473 530.285074 402.307473 676.017116 402.307473 812.20435 381.352779 895.98656 329.167176L895.98656 512.017919C895.98656 550.270295 767.259637 621.691795 530.285074 621.691795Z" p-id="3504"></path></svg>