<?xml version="1.0" standalone="no"?><!DOCTYPE svg PUBLIC "-//W3C//DTD SVG 1.1//EN" "http://www.w3.org/Graphics/SVG/1.1/DTD/svg11.dtd"><svg t="1545024300316" class="icon" style="" viewBox="0 0 1024 1024" version="1.1" xmlns="http://www.w3.org/2000/svg" p-id="4042" xmlns:xlink="http://www.w3.org/1999/xlink" width="64" height="64"><defs><style type="text/css"></style></defs><path d="M490.666667 149.333333l42.666667 0c12.8 0 21.333333-8.533333 21.333333-21.333333s-8.533333-21.333333-21.333333-21.333333l-42.666667 0c-12.8 0-21.333333 8.533333-21.333333 21.333333S477.866667 149.333333 490.666667 149.333333zM512 874.666667c-12.8 0-21.333333 8.533333-21.333333 21.333333 0 12.8 8.533333 21.333333 21.333333 21.333333s21.333333-8.533333 21.333333-21.333333C533.333333 883.2 524.8 874.666667 512 874.666667zM256 853.333333l512 0L768 170.666667 256 170.666667 256 853.333333zM298.666667 213.333333l426.666667 0 0 597.333333L298.666667 810.666667 298.666667 213.333333zM768 42.666667 256 42.666667C209.066667 42.666667 170.666667 81.066667 170.666667 128l0 768c0 46.933333 38.4 85.333333 85.333333 85.333333l512 0c46.933333 0 85.333333-38.4 85.333333-85.333333L853.333333 128C853.333333 81.066667 814.933333 42.666667 768 42.666667zM810.666667 896c0 23.466667-19.2 42.666667-42.666667 42.666667L256 938.666667c-23.466667 0-42.666667-19.2-42.666667-42.666667L213.333333 128c0-23.466667 19.2-42.666667 42.666667-42.666667l512 0c23.466667 0 42.666667 19.2 42.666667 42.666667L810.666667 896z" p-id="4043" fill="#409eff"></path></svg>